<?xml version="1.0" encoding="utf-8"?>
<!DOCTYPE svg PUBLIC "-//W3C//DTD SVG 1.1//EN" "http://www.w3.org/Graphics/SVG/1.1/DTD/svg11.dtd">
<svg version="1.1" xmlns="http://www.w3.org/2000/svg" xmlns:xlink="http://www.w3.org/1999/xlink" xmlns:xml="http://www.w3.org/XML/1998/namespace" x="0" y="0" width="15.75151" height="13.51563" viewBox="2.049467, 2.654646, 15.75151, 13.51563" xml:space="default" shape-rendering="auto">
  <g transform="translate(-18.13754, -16.29457)" id="g3820" shape-rendering="inherit">
    <g transform="matrix(1.024733, 0, 0, 1.024733, -28.96541, 4.941729)" id="g46" shape-rendering="inherit">
      <g transform="translate(42.94675, 0)" id="g43" shape-rendering="inherit">
        <g id="g42" shape-rendering="inherit">
          <g id="path41" shape-rendering="inherit">
            <path d="m11.94922 13.85547 a0.50005 0.50005 0 0 0 -0.503906 0.5 v3.078125 a0.50005 0.50005 0 0 0 0.46875 0.498047 c0.910594 0.05658 1.611349 0.802493 1.611328 1.714843 c2E-05 0.91235 -0.700735 1.658268 -1.611328 1.714844 a0.50005 0.50005 0 0 0 -0.46875 0.5 v0.439453 a0.50005 0.50005 0 0 0 0.52539 0.498047 c1.672612 -0.08667 2.994096 -1.477488 2.994141 -3.152344 c-4.7E-05 -0.538283 -0.253225 -1.018316 -0.511719 -1.484375 l1.929687 -1.929687 a0.50005 0.50005 0 0 0 0.109375 -0.541016 c-0.135878 -0.336044 -0.263224 -0.627444 -0.382812 -0.861328 c-0.119588 -0.233884 -0.160684 -0.392266 -0.421875 -0.582031 c-0.241726 -0.175625 -0.394274 -0.172934 -0.626953 -0.212891 c-0.232679 -0.03996 -0.513558 -0.07029 -0.835938 -0.0957 c-0.644759 -0.05083 -1.44998 -0.07863 -2.27539 -0.08398 z M12.44531 14.875 c0.609968 0.01177 1.232726 0.02557 1.701171 0.0625 c0.303608 0.02393 0.561164 0.05256 0.744141 0.08398 c0.182977 0.03142 0.322146 0.117374 0.208984 0.03516 c-0.122302 -0.08886 0.02187 0.03828 0.119141 0.228515 c0.06007 0.117483 0.14054 0.31089 0.214844 0.482422 l-1.888672 1.888672 a0.50005 0.50005 0 0 0 0 0.01563 c-0.306543 -0.267983 -0.694306 -0.408254 -1.099609 -0.517578 z" color="black" id="path3916" stroke-linecap="round" stroke-linejoin="round" stroke-miterlimit="1" stroke-dashoffset="2.47182" shape-rendering="inherit" style="-inkscape-stroke:none;paint-order:stroke markers fill;fill:#F67A16;" />
            <path d="m11.94501 14.35623 v3.077331 a2.218037 2.218037 0 0 1 2.080493 2.213819 a2.218037 2.218037 0 0 1 -2.080493 2.213818 v0.43925 a2.656699 2.656699 0 0 0 2.519226 -2.653068 a2.656699 2.656699 0 0 0 -0.56534 -1.638143 l2.13062 -2.13062 C15.76459 15.22343 15.53278 14.75324 15.39389 14.65234 C15.13676 14.46552 13.57775 14.36683 11.94501 14.35623 Z" color="black" id="path3918" stroke-linecap="round" stroke-linejoin="round" stroke-miterlimit="1" stroke-dashoffset="2.47182" shape-rendering="inherit" style="-inkscape-stroke:none;paint-order:stroke markers fill;fill:#F67A16;" />
          </g>
          <g id="path42" shape-rendering="inherit">
            <path d="m11.65039 13.85547 c-0.877299 0 -1.753848 0.02532 -2.457031 0.07617 c-0.3515916 0.02543 -0.6596005 0.05655 -0.9121094 0.09766 c-0.2525089 0.04111 -0.4117733 0.03261 -0.6679688 0.21875 c-0.2562312 0.186162 -0.2988814 0.340888 -0.4160156 0.568359 c-0.1171341 0.227471 -0.2421525 0.51133 -0.375 0.837891 c-0.265695 0.653121 -0.5589391 1.478142 -0.8300781 2.3125 c-0.271139 0.834358 -0.5185018 1.674833 -0.6875 2.359375 c-0.084499 0.342271 -0.1504948 0.643608 -0.1894531 0.896484 c-0.038958 0.252876 -0.095928 0.403833 0.00195 0.705078 c0.097874 0.301225 0.2319644 0.38862 0.4121094 0.570313 c0.1801449 0.181692 0.4101567 0.387978 0.6796875 0.615234 c0.5390615 0.454512 1.23361 0.990166 1.943359 1.50586 c0.7097492 0.515693 1.432425 1.010555 2.03125 1.382812 c0.299412 0.186129 0.568412 0.341839 0.796875 0.457031 c0.228463 0.115193 0.353176 0.214844 0.669922 0.214844 c0.105801 0 0.172214 -0.01831 0.238281 -0.03711 a0.50005 0.50005 0 0 0 0.363281 -0.480469 v-3.652344 a0.50005 0.50005 0 0 0 0.19336 -0.203125 v-0.439453 a0.50005 0.50005 0 0 0 -0.53125 -0.5 c-0.03545 0.0022 -0.06995 0.0039 -0.105469 0.0039 a0.50005 0.50005 0 0 0 -0.002 0 c-0.954715 -3.6E-05 -1.716761 -0.764035 -1.716797 -1.71875 c3.6E-05 -0.954714 0.762082 -1.71676 1.716797 -1.716797 a0.50005 0.50005 0 0 0 0.002 0 c0.03552 -4.2E-05 0.07002 -0.000205 0.105469 0.002 a0.50005 0.50005 0 0 0 0.53125 -0.498047 v-3.078125 a0.50005 0.50005 0 0 0 -0.496094 -0.5 c-0.0991 -0.000644 -0.199189 0 -0.298828 0 z m-0.205078 1.005859 v2.21875 c-1.300195 0.201043 -2.355418 1.212099 -2.355469 2.566406 c4.97E-05 1.302628 0.9948612 2.253039 2.222656 2.513672 a0.50005 0.50005 0 0 0 -0.06055 0.142578 v3.160157 C11.09046 25.37492 10.92642 25.28509 10.71289 25.15234 C10.1453 24.7995 9.434598 24.31506 8.740234 23.81055 C8.045871 23.30603 7.364467 22.78042 6.853516 22.34961 C6.59804 22.1342 6.385609 21.94155 6.240234 21.79492 C6.09486 21.6483 6.022545 21.47814 6.068359 21.61914 c0.045821 0.141024 0.00372 -0.04008 0.035156 -0.244141 c0.031438 -0.204062 0.091783 -0.484173 0.171875 -0.808594 c0.1601844 -0.648841 0.4027075 -1.474744 0.6679688 -2.291015 c0.2652613 -0.816271 0.5528478 -1.625079 0.8046875 -2.244141 c0.1259198 -0.309531 0.2433645 -0.572293 0.3378906 -0.755859 c0.094526 -0.183567 0.2351728 -0.305891 0.1152344 -0.21875 c-0.1199026 0.08712 0.038429 -0.0078 0.2421875 -0.04102 c0.2037584 -0.03317 0.4890168 -0.06379 0.8222656 -0.08789 c0.609185 -0.04406 1.396341 -0.06252 2.179688 -0.06641 z" color="black" id="path3922" stroke-linecap="round" stroke-linejoin="round" stroke-miterlimit="1" stroke-dashoffset="2.47182" shape-rendering="inherit" style="-inkscape-stroke:none;paint-order:stroke markers fill;fill:#F67A16;" />
            <path d="m11.94501 14.35623 c-0.09815 -0.000638 -0.196659 -0.001 -0.295072 -0.001 c-1.735567 0 -3.470855 0.09909 -3.743441 0.29714 c-0.5451719 0.39609 -2.522308 6.480124 -2.314071 7.121012 c0.2082372 0.640888 5.383642 4.401282 6.057511 4.401282 c0.02711 0 0.06176 -0.0064 0.102836 -0.01809 v-3.852995 a2.656699 2.656699 0 0 0 0.05478 0.000517 a2.656699 2.656699 0 0 0 0.137459 -0.0036 v-0.43925 a2.218037 2.218037 0 0 1 -0.137459 0.0041 a2.218037 2.218037 0 0 1 -2.217952 -2.217952 a2.218037 2.218037 0 0 1 2.217952 -2.217953 a2.218037 2.218037 0 0 1 0.137459 0.0041 z" color="black" id="path3924" stroke-linecap="round" stroke-linejoin="round" stroke-miterlimit="1" stroke-dashoffset="2.47182" shape-rendering="inherit" style="-inkscape-stroke:none;paint-order:stroke markers fill;fill:#F67A16;" />
          </g>
        </g>
        <path d="m15.26637 19.3178 a3.459904 3.459904 0 0 1 -3.459905 3.459904 a3.459904 3.459904 0 0 1 -3.459904 -3.459904 a3.459904 3.459904 0 0 1 3.459904 -3.459905 a3.459904 3.459904 0 0 1 3.459905 3.459905 z" id="circle42" stroke-width="0.777778" stroke-linecap="round" stroke-linejoin="round" stroke-miterlimit="1" stroke-dashoffset="2.47182" shape-rendering="inherit" style="paint-order:stroke markers fill;fill:#052E39;" />
        <path d="m11.80646 17.22099 a0.9255546 0.9255546 0 0 0 -0.925337 0.925337 a0.9255546 0.9255546 0 0 0 0.48063 0.811574 c-0.251198 0.922547 -0.499743 2.041511 -0.453414 2.221353 c0.08085 0.313809 1.715403 0.313809 1.796242 0 c0.04632 -0.179842 -0.202217 -1.298806 -0.453416 -2.221353 a0.9255546 0.9255546 0 0 0 0.480632 -0.811574 a0.9255546 0.9255546 0 0 0 -0.925337 -0.925337 z" id="path43" stroke-width="1.01645" stroke-linecap="round" stroke-linejoin="round" stroke-miterlimit="1" stroke-dashoffset="2.47182" shape-rendering="inherit" style="paint-order:stroke markers fill;fill:#F67A16;" />
      </g>
      <g transform="matrix(1.119442, 1.119442, -1.119442, 1.119442, 25.06559, -50.18584)" id="g45" shape-rendering="inherit" style="fill:#052E39;stroke:#052E39;">
        <g id="path44" shape-rendering="inherit">
          <path d="m45.06055 13.9375 a0.250025 0.250025 0 0 0 -0.265625 0.25 v0.162109 a0.250025 0.250025 0 0 0 0.234375 0.25 c1.30504 0.08629 2.341701 1.122678 2.427734 2.427735 a0.250025 0.250025 0 0 0 0.248047 0.232422 h0.164063 a0.250025 0.250025 0 0 0 0.248046 -0.265625 C48.01486 15.35227 46.7024 14.04013 45.06055 13.9375 Z" color="black" id="path3932" stroke-linecap="round" stroke-linejoin="round" stroke-miterlimit="1" stroke-dashoffset="2.47182" shape-rendering="inherit" style="-inkscape-stroke:none;paint-order:stroke markers fill;stroke:none;" />
          <path d="m47.8684 17.01032 a3.016602 3.016602 0 0 0 -2.822567 -2.823083 v0.162781 a2.854275 2.854275 0 0 1 2.659786 2.660302 z" color="black" id="path3934" stroke-width="0.5" stroke-linecap="round" stroke-linejoin="round" stroke-miterlimit="1" stroke-dashoffset="2.47182" shape-rendering="inherit" style="-inkscape-stroke:none;paint-order:stroke markers fill;stroke:none;" />
        </g>
        <g id="path45" shape-rendering="inherit">
          <path d="m45.09961 14.83008 a0.2866532 0.2866532 0 0 0 -0.304687 0.285156 v0.107422 a0.2866532 0.2866532 0 0 0 0.269531 0.285157 c0.798779 0.05281 1.429764 0.685585 1.482422 1.484374 a0.2866532 0.2866532 0 0 0 0.287109 0.267579 h0.105469 a0.2866532 0.2866532 0 0 0 0.287109 -0.304688 c-0.07112 -1.141093 -0.985872 -2.053674 -2.126953 -2.125 z" color="black" id="path3938" stroke-linecap="round" stroke-linejoin="round" stroke-miterlimit="1" stroke-dashoffset="2.47182" shape-rendering="inherit" style="-inkscape-stroke:none;paint-order:stroke markers fill;stroke:none;" />
          <path d="m46.94017 16.9737 a1.985416 1.985416 0 0 0 -1.857709 -1.85805 v0.10714 a1.878579 1.878579 0 0 1 1.750572 1.750913 z" color="black" id="path3940" stroke-width="0.573249" stroke-linecap="round" stroke-linejoin="round" stroke-miterlimit="1" stroke-dashoffset="2.47182" shape-rendering="inherit" style="-inkscape-stroke:none;paint-order:stroke markers fill;stroke:none;" />
        </g>
      </g>
    </g>
    <g id="rect3445" opacity="0" shape-rendering="inherit">
      <path d="m20.27118 18.98967 h13.43645 c0 0 0 0 0 0 v13.43645 c0 0 0 0 0 0 H20.27118 c0 0 0 0 0 0 V18.98967 c0 0 0 0 0 0 z" color="black" id="path3944" stroke-width="0.0790001" stroke-linecap="round" stroke-linejoin="bevel" shape-rendering="inherit" style="-inkscape-stroke:none;fill:#B0B0B0;" />
      <path d="m20.27148 18.94922 l-0.03906 0.04102 v13.43555 l0.03906 0.03906 h13.43555 l0.04102 -0.03906 V18.99023 l-0.04102 -0.04102 z m0.03906 0.08008 H33.66797 V32.38672 H20.31055 Z" color="black" id="path3946" stroke-linecap="round" stroke-linejoin="bevel" shape-rendering="inherit" style="-inkscape-stroke:none;fill:#B0B0B0;" />
    </g>
  </g>
</svg>