<?xml version="1.0" encoding="UTF-8" standalone="no"?>
<svg
   version="1.1"
   x="0"
   y="0"
   width="13.514707"
   height="13.135059"
   viewBox="2.049467 2.654646 13.514707 13.13506"
   xml:space="default"
   shape-rendering="auto"
   id="svg24"
   sodipodi:docname="OpenAlarm_logo.svg"
   inkscape:version="1.1.2 (b8e25be833, 2022-02-05)"
   xmlns:inkscape="http://www.inkscape.org/namespaces/inkscape"
   xmlns:sodipodi="http://sodipodi.sourceforge.net/DTD/sodipodi-0.dtd"
   xmlns="http://www.w3.org/2000/svg"
   xmlns:svg="http://www.w3.org/2000/svg">
  <defs
     id="defs28" />
  <sodipodi:namedview
     id="namedview26"
     pagecolor="#505050"
     bordercolor="#eeeeee"
     borderopacity="1"
     inkscape:pageshadow="0"
     inkscape:pageopacity="0"
     inkscape:pagecheckerboard="0"
     showgrid="false"
     inkscape:zoom="23.824269"
     inkscape:cx="9.6750083"
     inkscape:cy="3.4418684"
     inkscape:window-width="1920"
     inkscape:window-height="1027"
     inkscape:window-x="1912"
     inkscape:window-y="-8"
     inkscape:window-maximized="1"
     inkscape:current-layer="svg24" />
  <path
     id="path3916"
     style="fill:#f67a16;stroke-width:1.02473;-inkscape-stroke:none;paint-order:stroke markers fill"
     d="m 8.8003187,2.6549393 c -0.8989972,0 -1.7970033,0.026017 -2.5175781,0.078125 C 5.922453,2.7591232 5.6059479,2.7905469 5.3471937,2.8326737 5.0884395,2.8748005 4.9261319,2.8665393 4.6635999,3.0572831 4.4010313,3.2480495 4.3578499,3.4062176 4.2378187,3.6393143 4.1177875,3.8724116 3.9891862,4.1620984 3.853053,4.4967362 3.5807867,5.1660108 3.2793355,6.0128358 3.0014906,6.86783 2.7236455,7.7228241 2.4715437,8.5843259 2.2983656,9.2857987 2.2117767,9.6365351 2.1429749,9.9446375 2.1030531,10.203767 c -0.039922,0.25913 -0.098348,0.413961 0.00195,0.722657 0.1002947,0.308675 0.2392276,0.397797 0.4238281,0.583984 0.1846004,0.186186 0.4191154,0.397982 0.6953125,0.630859 0.5523941,0.465753 1.2648843,1.014521 1.9921875,1.542969 0.7273034,0.528448 1.4683954,1.034552 2.0820313,1.416016 0.3068173,0.190733 0.5822927,0.350709 0.8164062,0.46875 0.2341136,0.118042 0.3609668,0.220703 0.6855469,0.220703 0.1084178,0 0.1764396,-0.01979 0.2441406,-0.03906 a 0.51241774,0.51241774 0 0 0 0.3730469,-0.49219 V 11.811189 A 3.5664648,3.5664648 0 0 1 8.9819593,11.838533 3.5664648,3.5664648 0 0 1 8.8139906,11.820955 3.5664648,3.5664648 0 0 1 5.7397718,9.727205 3.5454778,3.5454778 0 0 1 5.7260999,9.695955 3.5664648,3.5664648 0 0 1 5.5737562,9.2857987 3.5454778,3.5454778 0 0 1 5.5385999,9.1529862 3.5664648,3.5664648 0 0 1 5.4604749,8.7955643 3.5454778,3.5454778 0 0 1 5.4233656,8.3639237 a 3.5664648,3.5664648 0 0 1 -0.00781,-0.091797 3.5664648,3.5664648 0 0 1 0,-0.00977 3.5454778,3.5454778 0 0 1 0,-0.00977 3.5454778,3.5454778 0 0 1 0.050781,-0.5761719 3.5664648,3.5664648 0 0 1 0.017578,-0.082031 3.5454778,3.5454778 0 0 1 0.140625,-0.515625 3.5664648,3.5664648 0 0 1 0.019531,-0.054687 A 3.5454778,3.5454778 0 0 1 5.8803968,6.5143143 3.5664648,3.5664648 0 0 1 5.9018812,6.477205 3.5454778,3.5454778 0 0 1 7.1987562,5.1842362 3.5454778,3.5454778 0 0 1 7.7182874,4.9400956 3.5664648,3.5664648 0 0 1 7.8022718,4.9107987 3.5454778,3.5454778 0 0 1 8.306178,4.7760331 3.5664648,3.5664648 0 0 1 8.384303,4.758455 3.5454778,3.5454778 0 0 1 8.5893812,4.7389237 v 0.00391 a 3.5454778,3.5454778 0 0 1 0.3710937,-0.037109 3.5454778,3.5454778 0 0 1 0.011719,0 3.5454778,3.5454778 0 0 1 0.00195,0 3.5664648,3.5664648 0 0 1 0.00781,0 3.5664648,3.5664648 0 0 1 0.6328125,0.058594 3.5664648,3.5664648 0 0 1 2.1777346,1.3261719 3.5664648,3.5664648 0 0 1 0.339843,0.5175781 L 12.362813,6.3776 a 0.46503338,0.46503338 0 0 0 0.08008,0.1347656 c 0.855722,0.9768826 0.853916,2.4275765 -0.002,3.4042969 a 0.46503338,0.46503338 0 0 0 0.02344,0.6367185 l 0.121094,0.121094 a 0.46503338,0.46503338 0 0 0 0.677734,-0.02148 c 1.227445,-1.3905694 1.225202,-3.4861704 -0.0019,-4.8769579 A 0.46503338,0.46503338 0 0 0 13.085475,5.6549393 l 0.310547,-0.3105468 a 0.40561198,0.40561198 0 0 0 0.04883,0.085937 c 1.398064,1.5960352 1.398378,3.9745525 0,5.5703125 a 0.40561198,0.40561198 0 0 0 0.01758,0.550781 l 0.189453,0.189453 a 0.40561198,0.40561198 0 0 0 0.587891,-0.02148 c 1.766053,-2.0008235 1.765685,-5.0105745 0,-7.0117184 A 0.40561198,0.40561198 0 0 0 13.782741,4.6041581 0.51241774,0.51241774 0 0 0 13.761256,4.5357987 C 13.622018,4.1914433 13.493177,3.8926549 13.370631,3.6529862 13.248085,3.4133178 13.204689,3.2517415 12.937038,3.0572831 12.689333,2.8773143 12.532899,2.8794784 12.294459,2.8385331 12.056028,2.7975848 11.769344,2.7669153 11.438991,2.7408768 10.778284,2.6887896 9.9527841,2.6604216 9.1069593,2.6549393 c -0.101551,-6.6e-4 -0.2045372,0 -0.3066406,0 z M 8.9604749,6.102205 A 0.94844634,0.94844634 0 0 0 8.0112562,7.0514237 0.94844634,0.94844634 0 0 0 8.5053968,7.883455 C 8.247986,8.8288193 7.9930783,9.9745556 8.040553,10.158846 c 0.08285,0.321571 1.7570054,0.321571 1.8398438,0 C 9.9278624,9.9745556 9.672965,8.8288193 9.415553,7.883455 A 0.94844634,0.94844634 0 0 0 9.9077406,7.0514237 0.94844634,0.94844634 0 0 0 8.9604749,6.102205 Z" />
</svg>
